<?xml version="1.0" encoding="utf-8"?>
<!-- Generator: Adobe Illustrator 23.0.2, SVG Export Plug-In . SVG Version: 6.00 Build 0)  -->
<svg version="1.1" id="Capa_1" xmlns="http://www.w3.org/2000/svg" xmlns:xlink="http://www.w3.org/1999/xlink" x="0px" y="0px"
	 viewBox="0 0 590.7 72.4" style="enable-background:new 0 0 590.7 72.4;" xml:space="preserve">
<style type="text/css">
	.st0{clip-path:url(#SVGID_2_);}
	.st1{fill:#FFFFFF;}
	.st2{fill:#FF5F00;}
	.st3{fill:#EB001B;}
	.st4{fill:#F79E1B;}
	.st5{fill:#006099;}
</style>
<g id="layer1" transform="translate(-333.70157,-536.42431)">
	<g id="g10267" transform="matrix(4.9846856,0,0,-4.9846856,-1470.1185,1039.6264)">
		<g>
			<defs>
				<path id="SVGID_1_" d="M382.6,96c0-1.8,1.6-2.8,2.8-3.4c1.3-0.6,1.7-1,1.7-1.6c0-0.8-1-1.2-1.9-1.2c-1.6,0-2.6,0.4-3.3,0.8
					l-0.6-2.7c0.8-0.3,2.1-0.7,3.6-0.7c3.4,0,5.6,1.7,5.6,4.3c0,3.3-4.6,3.5-4.5,5c0,0.4,0.4,0.9,1.4,1c0.5,0.1,1.7,0.1,3.2-0.6
					l0.6,2.7c-0.8,0.3-1.8,0.6-3,0.6C384.8,100.2,382.6,98.5,382.6,96 M396.5,100c-0.6,0-1.1-0.4-1.4-0.9l-4.9-11.6h3.4l0.7,1.9h4.1
					l0.4-1.9h3l-2.6,12.5H396.5 M397,96.6l1-4.7h-2.7L397,96.6 M378.5,100l-2.7-12.5h3.2l2.7,12.5H378.5 M373.7,100l-3.4-8.5
					l-1.4,7.2c-0.2,0.8-0.8,1.3-1.5,1.3h-5.5l-0.1-0.4c1.1-0.2,2.4-0.6,3.2-1.1c0.5-0.3,0.6-0.5,0.8-1.1l2.6-10h3.4l5.2,12.5H373.7"
					/>
			</defs>
			<use xlink:href="#SVGID_1_"  style="overflow:visible;fill:#FFFFFF;"/>
			<clipPath id="SVGID_2_">
				<use xlink:href="#SVGID_1_"  style="overflow:visible;"/>
			</clipPath>
			<g id="g10269" class="st0">
				<g id="g10275" transform="translate(351.611,96.896)">
					<path id="path10283" class="st1" d="M6.1,1.7l39.4,14.5l9-24.4L15-22.6"/>
				</g>
			</g>
		</g>
	</g>
</g>
<g id="Layer_2">
	<g id="Layer_1-2">
		<g id="_Group_">
			<rect x="281.9" y="7.8" class="st2" width="31.5" height="56.6"/>
			<path id="_Path_" class="st3" d="M283.9,36.1c0-11,5.1-21.5,13.8-28.3c-15.6-12.3-38.3-9.6-50.5,6.1
				c-12.2,15.7-9.6,38.3,6.1,50.5c13.1,10.3,31.4,10.3,44.5,0C288.9,57.5,283.8,47.1,283.9,36.1z"/>
			<path class="st4" d="M355.8,36.1c0,19.9-16.1,36-36,36c-8.1,0-15.9-2.7-22.2-7.7c15.6-12.3,18.3-35,6.1-50.6
				c-1.8-2.3-3.8-4.3-6.1-6.1c15.6-12.3,38.3-9.6,50.6,6.1C353.1,20.1,355.8,28,355.8,36.1L355.8,36.1z"/>
			<path class="st4" d="M352.4,58.4v-1.2h0.5V57h-1.2v0.2h0.5v1.2H352.4z M354.7,58.4V57h-0.4l-0.4,1l-0.4-1h-0.3v1.4h0.3v-1
				l0.4,0.9h0.3l0.4-0.9v1.1L354.7,58.4z"/>
		</g>
	</g>
</g>
<g>
	<path class="st5" d="M395.8,69l181.9,0c7.1,0,12.9-5.8,12.9-12.9V3.2H395.8V69z"/>
	<path class="st1" d="M499.1,39.7l-4-12.6l-3.9,12.6H499.1z M498.9,22.9l9,26.7h-5.7l-1.8-5.5h-10.6l-1.8,5.5h-5.7l8.3-24.6
		c0.4-1.2,1.6-2,2.8-2H498.9z"/>
	<path class="st1" d="M524.6,42.8c0,2-1,2.6-3.5,2.6h-5.5v-7.3h6c2.1,0,3,0.9,3,2.7V42.8z M515.6,27.1h5.2c2,0,2.8,0.7,2.8,2.2v2.4
		c0,1.6-0.8,2.5-2.9,2.5h-5.2V27.1z M525.9,35.7c2.2-0.9,3.2-2.1,3.2-4.3v-2.8c0-3.6-2.2-5.7-7.6-5.7h-11.3v26.7h12
		c5.2,0,7.8-2.4,7.8-6.1v-2.8C530,38,528.5,36.2,525.9,35.7"/>
	<path class="st1" d="M472.5,26.7h7.8v-1.9c0-1.5-1.2-2.6-2.6-2.6h-5.1c-6.9,0.1-9.9,2.9-9.9,7.7v12c0,4.8,3,7.7,9.9,7.7v0h7.5v-1.9
		c0-1.5-1.2-2.6-2.6-2.6h-4.8v0c-3.4-0.1-4.5-1.3-4.5-4V30.7C467.9,28,469.1,26.8,472.5,26.7"/>
	<path class="st1" d="M564.2,45.1v-18v-4.6h-2.4c-1.7,0-3,1.3-3,3v1.6v22.5h17.2v-4.4H564.2z"/>
	<path class="st1" d="M548,39.7l-4-12.6l-3.9,12.6H548z M547.8,22.9l9,26.7h-5.7l-1.8-5.5h-10.6l-1.8,5.5h-5.7l8.1-23.9
		c0.6-1.7,2.1-2.8,3.9-2.8H547.8z"/>
	<path class="st1" d="M433.1,14.7l19.8,19.4c1.1,1.1,1.1,2.9,0,3.9l-19.8,19.4l0-10.8l9.3-9.2c0.8-0.8,0.8-2,0-2.7l-9.3-9.2V14.7z"
		/>
	<path class="st1" d="M429.5,14.7l-19.8,19.4c-1.1,1.1-1.1,2.9,0,3.9l19.8,19.4l0-10.8l-9.3-9.2c-0.8-0.8-0.8-2,0-2.7l9.3-9.2V14.7z
		"/>
</g>
</svg>
