<svg xmlns="http://www.w3.org/2000/svg" xmlns:xlink="http://www.w3.org/1999/xlink" width="314.8" height="108.91" viewBox="0 0 314.8 108.91"><defs><style>.cls-1{fill:#ff9e18;}.cls-2{fill:url(#Degradado_sin_nombre_2);}.cls-3{fill:#ff5100;}.cls-4{fill:#96262c;}</style><linearGradient id="Degradado_sin_nombre_2" y1="980.53" x2="45.68" y2="980.53" gradientTransform="translate(0 -935.77)" gradientUnits="userSpaceOnUse"><stop offset="0" stop-color="#ff9e18" stop-opacity="0"/><stop offset="0.06" stop-color="#fc9018" stop-opacity="0.06"/><stop offset="0.24" stop-color="#f26a1a" stop-opacity="0.26"/><stop offset="0.42" stop-color="#ea4c1a" stop-opacity="0.45"/><stop offset="0.6" stop-color="#e5361b" stop-opacity="0.64"/><stop offset="0.77" stop-color="#e22a1b" stop-opacity="0.83"/><stop offset="0.93" stop-color="#e1251b"/></linearGradient></defs><g id="Capa_2" data-name="Capa 2"><g id="Capa_1-2" data-name="Capa 1"><g id="Capa_8" data-name="Capa 8"><path class="cls-1" d="M0,80.31V62a27.44,27.44,0,0,0,27.4-27.4V9.21H45.6v25.4A45.6,45.6,0,0,1,0,80.31Z"/><path class="cls-2" d="M0,80.31V62a27.44,27.44,0,0,0,27.4-27.4V9.21H45.6v25.4A45.6,45.6,0,0,1,0,80.31Z"/><path class="cls-3" d="M96.8,3.81a2.34,2.34,0,0,1,.7,1.7,2.56,2.56,0,0,1-.8,1.9,2.84,2.84,0,0,1-1.7.7,2.17,2.17,0,0,1-1.8-.8,2.56,2.56,0,0,1-.8-1.9,2.46,2.46,0,0,1,.9-1.9,2.84,2.84,0,0,1,1.7-.7A3.29,3.29,0,0,1,96.8,3.81Zm-3.5.4a2.17,2.17,0,0,0-.5,1.4,2.33,2.33,0,0,0,.7,1.5,2.17,2.17,0,0,0,1.4.5,1.8,1.8,0,0,0,1.5-.7,2.17,2.17,0,0,0,.5-1.4A1.8,1.8,0,0,0,96.2,4a2.17,2.17,0,0,0-1.4-.5A1.8,1.8,0,0,0,93.3,4.21Zm2.3.8a1,1,0,0,0-.8-.4.91.91,0,0,0-.7.3,1,1,0,0,0,0,1.4.86.86,0,0,0,.6.3.6.6,0,0,0,.4-.1c.1,0,.2-.2.4-.3l.4.4-.1.1a1.61,1.61,0,0,1-1.1.5,1.85,1.85,0,0,1-1.2-.5,1.28,1.28,0,0,1-.4-1,1.43,1.43,0,0,1,.5-1.1,1.28,1.28,0,0,1,1-.4,1.73,1.73,0,0,1,1.2.6Z"/><path class="cls-4" d="M80.3,97.31a9,9,0,0,1-8-4.8l-43.6-79a9.15,9.15,0,1,1,16.1-8.7l43.7,79a9.12,9.12,0,0,1-3.7,12.4A9.9,9.9,0,0,1,80.3,97.31Z"/><path class="cls-3" d="M80.2,97.31a9.13,9.13,0,0,1-9.1-9.1v-79a9.1,9.1,0,1,1,18.2,0v79A9,9,0,0,1,80.2,97.31Z"/><path class="cls-3" d="M107.6,94.21V51.71h6.5l22.2,29.6V51.71h7.6v42.6h-6.5l-22.2-29.6v29.6l-7.6-.1Z"/><path class="cls-3" d="M178.4,94.21h-7.3v-1.8a12.61,12.61,0,0,1-7.6,2.7,13.79,13.79,0,0,1-11-5,14.36,14.36,0,0,1-3.8-10.2,14.25,14.25,0,0,1,5-11.3,14.61,14.61,0,0,1,9.9-3.8,12.61,12.61,0,0,1,7.6,2.7v-1.8h7.3l-.1,28.5Zm-20.7-19.8A8.9,8.9,0,0,0,156,80a8.7,8.7,0,0,0,2.3,6.3,7.16,7.16,0,0,0,5.4,2.2,7,7,0,0,0,5.9-2.9,9.06,9.06,0,0,0,1.6-5.6,8.46,8.46,0,0,0-2.3-6.2,7.09,7.09,0,0,0-5.5-2.2A6.92,6.92,0,0,0,157.7,74.41Z"/><path class="cls-3" d="M192.4,67.71a8.66,8.66,0,0,1,5.5-2c.7,0,1.6.1,2.7.2v6.5c-1.1-.1-2-.1-2.6-.1-2.1,0-3.6.6-4.4,1.8s-1.2,3.4-1.2,6.5v13.6h-7.3V65.91h7.3Z"/><path class="cls-3" d="M232.7,94.21h-7.3v-1.8a12.61,12.61,0,0,1-7.6,2.7,13.79,13.79,0,0,1-11-5,14.36,14.36,0,0,1-3.8-10.2,14.25,14.25,0,0,1,5-11.3,14.61,14.61,0,0,1,9.9-3.8,12.61,12.61,0,0,1,7.6,2.7v-1.8h7.3v28.5ZM212,74.41a8.9,8.9,0,0,0-1.7,5.6,8.7,8.7,0,0,0,2.3,6.3,7.16,7.16,0,0,0,5.4,2.2,7,7,0,0,0,5.9-2.9,9.06,9.06,0,0,0,1.6-5.6,8.46,8.46,0,0,0-2.3-6.2,7.09,7.09,0,0,0-5.5-2.2A6.92,6.92,0,0,0,212,74.41Z"/><path class="cls-3" d="M246.8,67.41a10.33,10.33,0,0,1,6.6-2.4,12.1,12.1,0,0,1,8.8,3.8c2.2,2.3,3.1,5.4,3.1,10.3v15.2H258V79.51c0-3.2-.5-5.3-1.4-6.3a4.9,4.9,0,0,0-3.8-1.5,5.62,5.62,0,0,0-4.7,2c-.9,1.1-1.3,3.2-1.3,6.5v14.1h-7.3V65.91h7.3v1.5Z"/><path class="cls-3" d="M279.5,53.21a4.16,4.16,0,0,1,1.3,3.1,4.53,4.53,0,0,1-7.7,3.2,4.22,4.22,0,0,1-1.3-3.2,4,4,0,0,1,1.3-3.1,4.87,4.87,0,0,1,3.3-1.3A4.16,4.16,0,0,1,279.5,53.21Z"/><path class="cls-3" d="M314.7,94.21h-7.3v-1.8a12.61,12.61,0,0,1-7.6,2.7,13.79,13.79,0,0,1-11-5,14.36,14.36,0,0,1-3.8-10.2,14.25,14.25,0,0,1,5-11.3,14.61,14.61,0,0,1,9.9-3.8,12.61,12.61,0,0,1,7.6,2.7v-1.8h7.3v28.5ZM294,74.41a8.9,8.9,0,0,0-1.7,5.6,8.7,8.7,0,0,0,2.3,6.3,7.16,7.16,0,0,0,5.4,2.2,7,7,0,0,0,5.9-2.9,9.06,9.06,0,0,0,1.6-5.6,8.46,8.46,0,0,0-2.3-6.2,7.09,7.09,0,0,0-5.5-2.2A6.92,6.92,0,0,0,294,74.41Z"/><path class="cls-3" d="M272.6,65.91v29.5c0,1.1-.5,6.1-7.1,6.5v7s13.8-.2,14.4-12.9h0V65.91Z"/></g></g></g></svg>